HIERARCHY
ROOT Hips
{
	OFFSET	0.000000	0.000000	0.000000
	CHANNELS 6 Xposition Yposition Zposition Zrotation Xrotation Yrotation
	JOINT LeftHip
	{
		OFFSET	4.740440	-3.195970	-0.322709
		CHANNELS 3 Zrotation Xrotation Yrotation
		JOINT LeftKnee
		{
			OFFSET	-1.605680	-15.592300	1.005510
			CHANNELS 3 Zrotation Xrotation Yrotation
			JOINT LeftAnkle
			{
				OFFSET	-0.632401	-16.421000	-1.413730
				CHANNELS 3 Zrotation Xrotation Yrotation
				End Site
				{
					OFFSET	0.008423	-2.933000	-1.776750
				}
			}
		}
	}
	JOINT RightHip
	{
		OFFSET	-4.740440	-3.195970	-0.322709
		CHANNELS 3 Zrotation Xrotation Yrotation
		JOINT RightKnee
		{
			OFFSET	1.605680	-15.592300	1.005510
			CHANNELS 3 Zrotation Xrotation Yrotation
			JOINT RightAnkle
			{
				OFFSET	0.632401	-16.421000	-1.413730
				CHANNELS 3 Zrotation Xrotation Yrotation
				End Site
				{
					OFFSET	-0.008423	-2.933000	-1.776750
				}
			}
		}
	}
	JOINT Chest
	{
		OFFSET	0.000000	3.468200	0.078401
		CHANNELS 3 Zrotation Xrotation Yrotation
		JOINT LeftCollar
		{
			OFFSET	3.857650	15.070700	-0.011583
			CHANNELS 3 Zrotation Xrotation Yrotation
			JOINT LeftShoulder
			{
				OFFSET	3.979720	-1.940530	-0.165223
				CHANNELS 3 Zrotation Xrotation Yrotation
				JOINT LeftElbow
				{
					OFFSET	0.615844	-10.986600	-0.673886
					CHANNELS 3 Zrotation Xrotation Yrotation
					JOINT LeftWrist
					{
						OFFSET	0.826843	-10.854500	1.034220
						CHANNELS 3 Zrotation Xrotation Yrotation
						End Site
						{
							OFFSET	-1.679080	-8.456540	0.936217
						}
					}
				}
			}
		}
		JOINT RightCollar
		{
			OFFSET	-3.857650	15.070700	-0.011583
			CHANNELS 3 Zrotation Xrotation Yrotation
			JOINT RightShoulder
			{
				OFFSET	-3.979720	-1.940530	-0.165223
				CHANNELS 3 Zrotation Xrotation Yrotation
				JOINT RightElbow
				{
					OFFSET	-0.615845	-10.986600	-0.673886
					CHANNELS 3 Zrotation Xrotation Yrotation
					JOINT RightWrist
					{
						OFFSET	-0.826843	-10.854500	1.034220
						CHANNELS 3 Zrotation Xrotation Yrotation
						End Site
						{
							OFFSET	1.679080	-8.456540	0.936217
						}
					}
				}
			}
		}
		JOINT Neck
		{
			OFFSET	0.000000	15.101400	0.055730
			CHANNELS 3 Zrotation Xrotation Yrotation
			JOINT Head
			{
				OFFSET	0.000000	4.185120	1.488260
				CHANNELS 3 Zrotation Xrotation Yrotation
				End Site
				{
					OFFSET	0.000000	7.773420	-0.106016
				}
			}
		}
	}
}
MOTION
Frames:     19
Frame Time: 0.016667
-3.666742	36.058170	9.502121	-10.286459	-3.205163	-67.319023	23.721123	-14.879601	3.540563	-5.372908	18.939434	-0.877254	-14.795332	7.239429	3.397660	-11.181767	6.741338	-1.042187	0.209502	26.287134	12.457508	6.964468	-22.410938	13.314917	9.848416	14.052422	-7.152380	0.157896	1.148411	6.557414	11.686090	-4.922771	13.488131	37.835220	-141.885483	48.731052	9.040018	-7.022198	-11.209697	-3.969691	-8.691215	3.242776	-11.361303	-20.299883	14.824059	-65.693520	-112.086525	-65.634781	-8.934830	-14.224427	-6.332351	-1.731329	-2.515343	14.879846	-7.947765	11.092940	6.969813	
-3.653422	36.059910	9.497877	-10.314204	-3.271699	-67.229645	23.631948	-14.793977	3.475626	-5.318419	18.728426	-0.887294	-14.824272	7.388239	3.379965	-11.238169	6.793842	-1.074439	0.246481	26.302261	12.412251	6.963905	-22.411127	13.308555	9.854275	14.053624	-7.257342	0.148317	1.163989	6.528918	11.553225	-5.069155	13.386698	37.950386	-141.751038	48.745575	9.058869	-7.039155	-11.264532	-3.960836	-8.701448	3.261957	-11.181736	-20.238363	14.771823	-65.878914	-112.065735	-65.657425	-8.998657	-14.203867	-6.381817	-1.708047	-2.547167	14.879189	-7.962058	11.112234	6.971566	
-3.640919	36.063461	9.492838	-10.298459	-3.344797	-67.115089	23.537462	-14.677293	3.663711	-5.137033	18.209106	-1.148732	-14.921667	7.796773	3.388030	-11.311646	6.817463	-1.144090	0.276957	26.313314	12.388624	6.957483	-22.412424	13.288375	9.842591	13.954331	-7.382896	0.101580	1.152921	6.550715	11.414001	-5.075517	13.252629	38.069878	-141.694763	48.861988	9.065351	-7.180205	-11.497163	-3.918197	-8.692745	3.310782	-11.005659	-20.120480	14.788428	-65.599312	-111.785583	-65.317741	-9.098709	-14.206706	-6.514112	-1.630165	-2.582692	14.878790	-7.937441	11.094768	6.982563	
-3.630829	36.064587	9.487645	-10.287639	-3.378973	-67.059341	23.498991	-14.661494	3.745216	-5.088645	18.074865	-1.188190	-14.929564	7.932604	3.312021	-11.344977	6.807220	-1.180713	0.288758	26.337673	12.369898	6.957483	-22.412424	13.288375	9.809260	13.935552	-7.391970	0.102716	1.121174	6.519106	11.258465	-5.136889	13.146583	38.231285	-141.618637	48.894646	9.067776	-7.225317	-11.542575	-3.915653	-8.675738	3.266583	-10.770966	-20.087473	14.865649	-65.662086	-111.678604	-65.237358	-9.096692	-14.209511	-6.559033	-1.613755	-2.570218	14.833781	-7.916410	11.026598	6.969073	
-3.607199	36.068111	9.471205	-10.259453	-3.468080	-66.912186	23.387630	-14.608265	3.908823	-4.967602	17.705536	-1.283865	-14.965933	8.276250	3.157988	-11.414658	6.792275	-1.331579	0.277157	26.389967	12.378818	6.957483	-22.412424	13.288375	9.729146	13.860239	-7.443073	0.073827	1.042996	6.462119	11.158543	-5.110505	12.976577	38.219330	-141.533646	48.942802	8.982471	-7.176641	-11.552197	-3.822513	-8.627524	3.260047	-10.655546	-20.017870	14.873244	-65.275604	-111.516800	-64.923569	-9.087029	-14.187807	-6.624924	-1.581429	-2.597941	14.715392	-7.840724	11.020740	7.004657	
-3.603251	36.069214	9.469599	-10.252270	-3.490649	-66.873650	23.350803	-14.572907	3.926585	-4.940313	17.601578	-1.297026	-14.982049	8.344663	3.130821	-11.439237	6.797776	-1.351991	0.290424	26.394281	12.360813	6.957483	-22.412424	13.288375	9.697934	13.783252	-7.366292	0.094744	1.083463	6.382800	11.004700	-5.175546	12.807770	38.312912	-141.435608	48.928925	8.972545	-7.172606	-11.527909	-3.820443	-8.553891	3.191995	-10.589413	-19.988863	14.864698	-64.852951	-111.492043	-64.622520	-8.950418	-14.145142	-6.606807	-1.651151	-2.637380	14.460976	-7.772617	11.092219	7.158027	
-3.589123	36.072765	9.468511	-10.229735	-3.565029	-66.812599	23.264404	-14.560122	3.966134	-4.894934	17.479866	-1.387749	-15.049576	8.436947	3.164808	-11.543601	6.782492	-1.305201	0.371402	26.428364	12.275476	6.948602	-22.414223	13.260506	9.628822	13.756876	-7.339754	0.076705	1.059479	6.341026	10.894842	-5.203934	12.746302	38.288761	-141.446136	49.024765	8.892021	-7.170677	-11.490692	-3.922181	-8.573629	3.220323	-10.309389	-19.915682	14.815855	-64.915855	-111.569901	-64.559639	-8.969512	-14.110648	-6.609335	-1.677010	-2.644110	14.402640	-7.737235	11.030482	7.092259	
-3.583983	36.072762	9.468906	-10.225845	-3.576503	-66.789528	23.246788	-14.568261	3.944086	-4.893760	17.474665	-1.387305	-15.065516	8.438359	3.174648	-11.564317	6.775613	-1.293171	0.398080	26.440050	12.249768	6.944849	-22.414976	13.248673	9.609244	13.733754	-7.267474	0.055615	1.017224	6.259062	10.813980	-5.245674	12.725629	38.410534	-141.399490	49.108482	8.864634	-7.179251	-11.497970	-3.966160	-8.567065	3.177600	-10.239267	-19.888321	14.815347	-64.682121	-111.639015	-64.310074	-9.005865	-14.029603	-6.587830	-1.717537	-2.683203	14.370877	-7.673533	11.066540	7.023684	
-3.579998	36.072117	9.471485	-10.225465	-3.578287	-66.785767	23.245430	-14.564516	3.960207	-4.866016	17.366850	-1.396373	-15.138505	8.542669	3.208179	-11.581937	6.763437	-1.247639	0.436764	26.452614	12.208167	6.941108	-22.415730	13.236835	9.592013	13.710100	-7.158133	0.000866	0.988495	6.247206	10.762161	-5.279274	12.620461	38.367935	-141.335785	49.104324	8.746425	-7.256501	-11.524500	-4.104080	-8.607387	3.231085	-10.147015	-19.886080	14.749657	-64.643929	-111.627281	-64.298012	-9.024686	-14.031812	-6.587366	-1.757323	-2.735964	14.373590	-7.608653	11.086330	6.882935	
-3.578834	36.071938	9.468674	-10.245105	-3.584168	-66.786400	23.245525	-14.546071	3.951349	-4.861338	17.345764	-1.394096	-15.156056	8.560671	3.217932	-11.574035	6.776336	-1.209806	0.448115	26.459347	12.168986	6.941108	-22.415730	13.236835	9.579161	13.702377	-7.036955	0.001711	0.993654	6.190173	10.723109	-5.290403	12.552960	38.355797	-141.304703	49.067677	8.696342	-7.274139	-11.531550	-4.156109	-8.602969	3.176623	-10.113468	-19.901215	14.739875	-64.651176	-111.672447	-64.319748	-9.095011	-13.968077	-6.572394	-1.777451	-2.751090	14.315051	-7.567571	11.112355	6.811775	
-3.565120	36.068466	9.481622	-10.300874	-3.600868	-66.788185	23.245810	-14.493694	3.926194	-4.861338	17.345764	-1.394096	-15.179029	8.554654	3.232512	-11.593693	6.810771	-1.115026	0.469562	26.476366	12.113200	6.974044	-22.420750	13.219753	9.573622	13.726058	-6.910649	-0.089123	0.880558	6.212309	10.697168	-5.325010	12.376203	38.367973	-141.153702	49.025867	8.610694	-7.253082	-11.498679	-4.305106	-8.656072	3.243473	-10.006139	-19.963041	14.738054	-64.894867	-111.523903	-64.588516	-9.105205	-13.961602	-6.537878	-1.882684	-2.811252	14.382968	-7.415111	11.180339	6.617525	
-3.559347	36.067669	9.487021	-10.298556	-3.607760	-66.774231	23.239309	-14.483872	3.972064	-4.847810	17.336315	-1.456122	-15.179029	8.554654	3.232512	-11.611268	6.804221	-1.092556	0.480004	26.483875	12.091432	6.987191	-22.422981	13.210560	9.521968	13.676608	-6.869384	-0.087586	0.884768	6.215743	10.679780	-5.399257	12.361847	38.442249	-141.082977	49.084309	8.571956	-7.222689	-11.449316	-4.322433	-8.639091	3.279458	-9.999224	-19.986950	14.720663	-64.931480	-111.505013	-64.670021	-9.130031	-13.953440	-6.482730	-1.870178	-2.800160	14.408042	-7.381790	11.233522	6.550658	
-3.551079	36.065960	9.500834	-10.296548	-3.614442	-66.760353	23.202734	-14.438767	4.185570	-4.749450	17.292389	-1.702871	-15.191439	8.562437	3.213760	-11.616610	6.807768	-1.105961	0.419974	26.475935	12.151319	7.028004	-22.430515	13.175463	9.406370	13.556181	-6.719555	-0.104583	0.944611	6.204964	10.744809	-5.380943	12.345544	38.377586	-141.084915	49.081142	8.488269	-7.158644	-11.437062	-4.414442	-8.720476	3.522190	-9.915054	-19.923077	14.571988	-65.267822	-111.391182	-64.991577	-9.201344	-13.934793	-6.480182	-1.902532	-2.793075	14.177209	-7.319627	11.343932	6.666911	
-3.548488	36.065243	9.506085	-10.296548	-3.614442	-66.760353	23.156713	-14.424342	4.281059	-4.669841	17.271345	-1.814648	-15.199403	8.578692	3.207818	-11.616610	6.807768	-1.105961	0.398298	26.472986	12.173814	7.033773	-22.434280	13.163524	9.392772	13.536753	-6.657498	-0.087428	0.941159	6.176163	10.742243	-5.355340	12.378177	38.346115	-141.106979	49.097870	8.454408	-7.136274	-11.468542	-4.521095	-8.778866	3.629994	-9.881174	-19.873440	14.454576	-65.333366	-111.436165	-65.087090	-9.285143	-13.904267	-6.479962	-1.943748	-2.825953	14.077202	-7.284042	11.372956	6.739491	
-3.536500	36.062244	9.520029	-10.338578	-3.627050	-66.761719	23.015297	-14.346809	4.535671	-4.439117	17.247570	-2.140869	-15.214631	8.593135	3.187135	-11.629767	6.836808	-1.045221	0.391843	26.479183	12.182714	7.027714	-22.445198	13.122223	9.333446	13.488674	-6.455103	-0.118421	0.954978	6.160150	10.758627	-5.314638	12.442954	38.372997	-141.174194	49.211983	8.345685	-7.091627	-11.478924	-4.606247	-8.751905	3.615369	-9.804547	-19.919073	14.507096	-65.504723	-111.267059	-65.277870	-9.269040	-13.922018	-6.439211	-2.084077	-2.827360	13.869681	-7.126282	11.400757	6.838402	
-3.527468	36.060013	9.529376	-10.354177	-3.631727	-66.762230	23.014154	-14.313931	4.607402	-4.418905	17.240044	-2.193667	-15.210555	8.601646	3.150370	-11.648625	6.833560	-0.979590	0.411907	26.495184	12.129200	7.043286	-22.449184	13.123863	9.321064	13.486978	-6.395755	-0.165448	0.932734	6.327633	10.798651	-5.313314	12.294765	38.371380	-141.162186	49.253185	8.343142	-7.117968	-11.374027	-4.706986	-8.797197	3.760388	-9.761921	-19.867912	14.370463	-65.512688	-111.251892	-65.293915	-9.292525	-13.891164	-6.433517	-2.140366	-2.808915	13.860092	-7.081087	11.350337	6.803340	
-3.511551	36.056229	9.550474	-10.397885	-3.644835	-66.763664	22.968281	-14.239915	4.767952	-4.328618	17.246210	-2.344334	-15.203279	8.600807	3.077656	-11.661494	6.864091	-0.919310	0.380231	26.499918	12.137033	7.053046	-22.461452	13.074579	9.200666	13.381030	-6.193488	-0.093247	1.073911	6.280879	10.829346	-5.285172	12.370244	38.315990	-141.088989	49.325626	8.164063	-7.116484	-11.289955	-4.728441	-8.692826	3.750884	-9.700027	-19.849148	14.413300	-65.457840	-111.211250	-65.239197	-9.330282	-13.832936	-6.431656	-2.296995	-2.633932	13.794867	-6.887357	11.244249	6.819670	
-3.506897	36.055122	9.555262	-10.412654	-3.644493	-66.772980	22.975332	-14.222878	4.775879	-4.340293	17.291336	-2.321661	-15.186381	8.568742	3.039503	-11.670872	6.863802	-0.864952	0.410451	26.509806	12.112336	7.032088	-22.464191	13.042610	9.181286	13.366606	-6.067685	-0.109091	1.079135	6.310386	10.858570	-5.278835	12.291946	38.287823	-141.056030	49.338779	8.128582	-7.135705	-11.276872	-4.827542	-8.725987	3.789639	-9.647796	-19.763769	14.317393	-65.335785	-111.298843	-65.119354	-9.416200	-13.750740	-6.413758	-2.339689	-2.628776	13.733322	-6.909561	11.203005	6.952833	
-3.489480	36.054073	9.578205	-10.431904	-3.632982	-66.806419	22.884863	-14.224902	4.782692	-4.260791	17.356138	-2.357049	-15.153863	8.515948	3.063799	-11.668959	6.860135	-0.793272	0.364664	26.487818	12.138821	7.039356	-22.454855	12.974535	9.137875	13.331115	-5.937095	-0.127367	1.156655	6.319746	10.875439	-5.304764	12.412431	38.323318	-140.987000	49.461178	7.962555	-7.210176	-11.302732	-4.878765	-8.708414	3.869226	-9.610447	-19.747372	14.331754	-65.161392	-111.245102	-64.950645	-9.396949	-13.716615	-6.407704	-2.529237	-2.565347	13.788726	-6.772933	11.143262	6.913067	
